<svg width="92" height="60" fill="none" xmlns="http://www.w3.org/2000/svg"><path d="M90.266 29.161h-7.759V16.067a1.5 1.5 0 00-1.5-1.5H56.706V1.5a1.5 1.5 0 00-1.5-1.5H1.5A1.5 1.5 0 000 1.5v49.185a1.5 1.5 0 001.5 1.5h12.538c.52 3.867 3.832 6.861 7.838 6.861s7.318-2.994 7.838-6.861h35.178c.52 3.867 3.834 6.861 7.844 6.861s7.324-2.994 7.845-6.861h9.686a1.5 1.5 0 001.5-1.5V30.661a1.501 1.501 0 00-1.501-1.5zm-68.39 26.885a4.924 4.924 0 01-4.917-4.92 4.924 4.924 0 014.917-4.92 4.924 4.924 0 014.917 4.92 4.924 4.924 0 01-4.917 4.92zm0-12.84c-3.695 0-6.797 2.549-7.666 5.979H3V3h50.706v46.184H29.543c-.869-3.429-3.972-5.978-7.667-5.978zm50.86 12.84a4.927 4.927 0 01-4.923-4.92 4.927 4.927 0 014.923-4.92 4.928 4.928 0 014.924 4.92c0 2.713-2.21 4.92-4.924 4.92zm16.03-6.862h-8.357c-.87-3.43-3.975-5.979-7.673-5.979s-6.803 2.549-7.672 5.979h-8.357V17.567h22.801v13.094a1.5 1.5 0 001.5 1.5h7.759v17.023h-.001z" fill="#5AD830"/></svg>