<svg width="45" height="45" fill="none" xmlns="http://www.w3.org/2000/svg"><path d="M38.936 0H6.064A6.064 6.064 0 000 6.064v32.872A6.064 6.064 0 006.064 45h16.212l.028-16.08h-4.178a.986.986 0 01-.986-.983l-.02-5.183a.986.986 0 01.986-.99h4.17v-5.008c0-5.812 3.55-8.977 8.735-8.977h4.255c.544 0 .986.441.986.986v4.37a.986.986 0 01-.986.986l-2.61.001c-2.82 0-3.366 1.34-3.366 3.306v4.337h6.196c.59 0 1.048.515.978 1.101l-.614 5.184a.986.986 0 01-.979.87h-5.554L29.29 45h9.646A6.064 6.064 0 0045 38.936V6.064A6.064 6.064 0 0038.936 0z" fill="#475993"/></svg>