<svg width="12" height="12" fill="none" xmlns="http://www.w3.org/2000/svg"><path d="M6 0C2.692 0 0 2.692 0 6s2.692 6 6 6 6-2.692 6-6-2.692-6-6-6zm0 11.22A5.225 5.225 0 01.78 6 5.225 5.225 0 016 .78 5.225 5.225 0 0111.22 6 5.225 5.225 0 016 11.22z" fill="#5AD830"/><path d="M8.447 6.978a.39.39 0 00-.539.118 2.03 2.03 0 01-1.718.941A2.04 2.04 0 014.153 6 2.037 2.037 0 017.88 4.86a.39.39 0 00.647-.437A2.817 2.817 0 003.372 6 2.821 2.821 0 006.19 8.818a2.81 2.81 0 002.376-1.301.39.39 0 00-.119-.54z" fill="#5AD830"/></svg>