<svg width="45" height="45" fill="none" xmlns="http://www.w3.org/2000/svg"><path d="M31.594 0H13.406C6.014 0 0 6.014 0 13.406v18.188C0 38.986 6.014 45 13.406 45h18.188C38.986 45 45 38.986 45 31.594V13.406C45 6.014 38.986 0 31.594 0zm8.879 31.594a8.879 8.879 0 01-8.879 8.879H13.406a8.879 8.879 0 01-8.879-8.879V13.406a8.879 8.879 0 018.879-8.879h18.188a8.879 8.879 0 018.879 8.879v18.188z" fill="url(#paint0_linear)"/><path d="M22.5 10.861c-6.418 0-11.639 5.221-11.639 11.639 0 6.417 5.221 11.638 11.639 11.638 6.418 0 11.639-5.22 11.639-11.638s-5.223-11.64-11.641-11.64zm0 18.75a7.112 7.112 0 110-14.223 7.112 7.112 0 010 14.223z" fill="url(#paint1_linear)"/><path d="M34.16 13.738a2.789 2.789 0 10.001-5.578 2.789 2.789 0 000 5.578z" fill="url(#paint2_linear)"/><defs><linearGradient id="paint0_linear" x1="22.5" y1="44.869" x2="22.5" y2=".35" gradientUnits="userSpaceOnUse"><stop stop-color="#E09B3D"/><stop offset=".3" stop-color="#C74C4D"/><stop offset=".6" stop-color="#C21975"/><stop offset="1" stop-color="#7024C4"/></linearGradient><linearGradient id="paint1_linear" x1="22.5" y1="44.869" x2="22.5" y2=".349" gradientUnits="userSpaceOnUse"><stop stop-color="#E09B3D"/><stop offset=".3" stop-color="#C74C4D"/><stop offset=".6" stop-color="#C21975"/><stop offset="1" stop-color="#7024C4"/></linearGradient><linearGradient id="paint2_linear" x1="34.161" y1="44.869" x2="34.161" y2=".35" gradientUnits="userSpaceOnUse"><stop stop-color="#E09B3D"/><stop offset=".3" stop-color="#C74C4D"/><stop offset=".6" stop-color="#C21975"/><stop offset="1" stop-color="#7024C4"/></linearGradient></defs></svg>