<svg width="87" height="50" fill="none" xmlns="http://www.w3.org/2000/svg"><path d="M73.708 9.897H87l-6.594 27.93H67.13l6.578-27.93zm-17.021 0h13.275l-6.44 26.758C61.97 43.138 57.482 50 48.263 50H28.358l3.056-9.069h9.15c4.315 0 9.131-2.38 10.184-6.69l5.939-24.344zM55.116 0H41.444l-6.37 26.81c-.622 2.604-1.485 4.104-4.592 4.104H18.864c-2.642 0-2.572-1.552-2.02-3.793l1.795-7.414c.45-1.845 1.053-2.672 3.505-2.672h11.445l1.709-7.156H13.063c-5.265 0-8.441 2.535-9.684 7.759L.375 30.172c-1.243 5.242.69 7.656 4.489 7.656h32.488c6.819 0 9.46-2.656 10.651-7.707L55.116 0z" fill="#5AD830"/></svg>