<svg width="94" height="62" fill="none" xmlns="http://www.w3.org/2000/svg"><path d="M38.546 26.241c-7.691 0-13.95 6.258-13.95 13.949s6.258 13.948 13.95 13.948c7.692 0 13.949-6.257 13.949-13.948 0-7.691-6.258-13.949-13.95-13.949zm0 24.898c-6.037 0-10.95-4.911-10.95-10.948 0-6.037 4.913-10.949 10.95-10.949 6.038 0 10.949 4.912 10.949 10.949s-4.912 10.948-10.95 10.948zM9.185 26.242a1.5 1.5 0 00-1.5 1.5v24.896a1.5 1.5 0 103 0V27.742a1.5 1.5 0 00-1.5-1.5zm58.249 0a1.5 1.5 0 00-1.5 1.5v24.896a1.5 1.5 0 003 0V27.742a1.5 1.5 0 00-1.5-1.5z" fill="#5AD830"/><path d="M92.073 0H18.655a1.5 1.5 0 00-1.5 1.5v7.419h-6.72a1.5 1.5 0 00-1.5 1.5v8.248H1.5a1.5 1.5 0 00-1.5 1.5v40.047a1.5 1.5 0 001.5 1.5h73.419a1.5 1.5 0 001.5-1.5v-8.248h7.436a1.5 1.5 0 001.5-1.5v-7.419h6.719a1.5 1.5 0 001.5-1.5V1.5A1.501 1.501 0 0092.073 0zM3 58.714V21.667h70.419v28.789l-.001.01.001.01v8.238H3zm79.354-9.748h-5.936V20.167a1.5 1.5 0 00-1.5-1.5H11.935v-6.748h70.419v37.047zm8.219-8.919h-5.219V10.419a1.5 1.5 0 00-1.5-1.5H20.155V3h70.418v37.047z" fill="#5AD830"/></svg>