<svg width="178" height="137" fill="none" xmlns="http://www.w3.org/2000/svg"><path d="M9.738 117.148v2.25h-5.4V130H1.62v-12.852h8.118zm4.346 2.826c1.32 0 2.328.288 3.024.864.708.564 1.062 1.434 1.062 2.61V130h-1.872l-.522-1.332h-.072c-.42.528-.864.912-1.332 1.152-.468.24-1.11.36-1.926.36-.876 0-1.602-.252-2.178-.756-.576-.516-.864-1.302-.864-2.358 0-1.044.366-1.812 1.098-2.304.732-.504 1.83-.78 3.294-.828l1.71-.054v-.432c0-.516-.138-.894-.414-1.134-.264-.24-.636-.36-1.116-.36-.48 0-.948.072-1.404.216-.456.132-.912.3-1.368.504l-.882-1.818a7.727 7.727 0 011.746-.648 8.584 8.584 0 012.016-.234zm1.422 5.472l-1.044.036c-.864.024-1.464.18-1.8.468-.336.288-.504.666-.504 1.134 0 .408.12.702.36.882.24.168.552.252.936.252.576 0 1.062-.168 1.458-.504.396-.348.594-.834.594-1.458v-.81zm10.882-5.454c1.104 0 1.998.432 2.682 1.296.684.852 1.026 2.112 1.026 3.78 0 1.668-.354 2.94-1.062 3.816-.708.864-1.614 1.296-2.718 1.296-.708 0-1.272-.126-1.692-.378a4.165 4.165 0 01-1.026-.882h-.144c.096.504.144.984.144 1.44v3.96h-2.682v-14.148h2.178l.378 1.278h.126a3.62 3.62 0 011.062-1.026c.444-.288 1.02-.432 1.728-.432zm-.864 2.142c-.696 0-1.188.216-1.476.648-.276.432-.426 1.092-.45 1.98v.288c0 .948.138 1.68.414 2.196.288.504.804.756 1.548.756.612 0 1.062-.252 1.35-.756.3-.516.45-1.254.45-2.214 0-1.932-.612-2.898-1.836-2.898zm10.814-2.16c1.32 0 2.328.288 3.024.864.708.564 1.062 1.434 1.062 2.61V130h-1.872l-.522-1.332h-.072c-.42.528-.864.912-1.332 1.152-.468.24-1.11.36-1.926.36-.876 0-1.602-.252-2.178-.756-.576-.516-.864-1.302-.864-2.358 0-1.044.366-1.812 1.098-2.304.732-.504 1.83-.78 3.294-.828l1.71-.054v-.432c0-.516-.138-.894-.414-1.134-.264-.24-.636-.36-1.116-.36-.48 0-.948.072-1.404.216-.456.132-.912.3-1.368.504l-.882-1.818a7.727 7.727 0 011.746-.648 8.584 8.584 0 012.016-.234zm1.422 5.472l-1.044.036c-.864.024-1.464.18-1.8.468-.336.288-.504.666-.504 1.134 0 .408.12.702.36.882.24.168.552.252.936.252.576 0 1.062-.168 1.458-.504.396-.348.594-.834.594-1.458v-.81zm8.092-5.274v3.78h3.744v-3.78h2.682V130h-2.682v-4.05h-3.744V130H43.17v-9.828h2.682zm17.372 2.016h-3.222V130H57.32v-7.812h-3.222v-2.016h9.126v2.016zm4.405-2.016v3.888c0 .204-.012.456-.036.756a25 25 0 01-.054.918c-.012.312-.03.588-.054.828s-.042.408-.054.504l4.536-6.894h3.222V130h-2.592v-3.924c0-.324.012-.678.036-1.062.024-.396.048-.762.072-1.098.036-.348.06-.612.072-.792L68.259 130h-3.222v-9.828h2.592zM79.486 130h-2.898l2.646-3.888a3.545 3.545 0 01-1.35-.99c-.384-.468-.576-1.104-.576-1.908 0-.984.372-1.734 1.116-2.25.744-.528 1.698-.792 2.862-.792h4.572V130h-2.682v-3.654H81.7L79.486 130zm.45-6.768c0 .408.162.732.486.972.324.228.744.342 1.26.342h1.494v-2.484H81.34c-.48 0-.834.12-1.062.36a1.107 1.107 0 00-.342.81zm19.846-3.06h2.952l-3.888 4.716 4.23 5.112h-3.042l-4.014-4.986V130h-2.682v-9.828h2.682v4.77l3.762-4.77zm8.732-.198c1.32 0 2.328.288 3.024.864.708.564 1.062 1.434 1.062 2.61V130h-1.872l-.522-1.332h-.072c-.42.528-.864.912-1.332 1.152-.468.24-1.11.36-1.926.36-.876 0-1.602-.252-2.178-.756-.576-.516-.864-1.302-.864-2.358 0-1.044.366-1.812 1.098-2.304.732-.504 1.83-.78 3.294-.828l1.71-.054v-.432c0-.516-.138-.894-.414-1.134-.264-.24-.636-.36-1.116-.36-.48 0-.948.072-1.404.216-.456.132-.912.3-1.368.504l-.882-1.818a7.727 7.727 0 011.746-.648 8.584 8.584 0 012.016-.234zm1.422 5.472l-1.044.036c-.864.024-1.464.18-1.8.468-.336.288-.504.666-.504 1.134 0 .408.12.702.36.882.24.168.552.252.936.252.576 0 1.062-.168 1.458-.504.396-.348.594-.834.594-1.458v-.81zm7.767-5.274v3.6c0 .852.396 1.278 1.188 1.278.516 0 .996-.054 1.44-.162.444-.12.888-.276 1.332-.468v-4.248h2.682V130h-2.682v-3.906c-.42.228-.9.438-1.44.63-.54.18-1.152.27-1.836.27-1.02 0-1.836-.264-2.448-.792-.612-.528-.918-1.32-.918-2.376v-3.654h2.682zm13.505-.18c1.356 0 2.43.39 3.222 1.17.792.768 1.188 1.866 1.188 3.294v1.296h-6.336c.024.756.246 1.35.666 1.782.432.432 1.026.648 1.782.648.636 0 1.212-.06 1.728-.18a8.757 8.757 0 001.602-.594v2.07c-.48.24-.99.414-1.53.522-.528.12-1.17.18-1.926.18-.984 0-1.854-.18-2.61-.54a4.134 4.134 0 01-1.782-1.674c-.432-.744-.648-1.68-.648-2.808 0-1.152.192-2.106.576-2.862.396-.768.942-1.344 1.638-1.728.696-.384 1.506-.576 2.43-.576zm.018 1.908c-.516 0-.948.168-1.296.504-.336.336-.534.858-.594 1.566h3.762c-.012-.6-.168-1.092-.468-1.476-.3-.396-.768-.594-1.404-.594zm10.563 8.28c-1.464 0-2.598-.402-3.402-1.206-.792-.816-1.188-2.094-1.188-3.834 0-1.2.204-2.178.612-2.934.408-.756.972-1.314 1.692-1.674.732-.36 1.572-.54 2.52-.54.672 0 1.254.066 1.746.198.504.132.942.288 1.314.468l-.792 2.07a12.9 12.9 0 00-1.188-.414 3.742 3.742 0 00-1.08-.162c-1.392 0-2.088.99-2.088 2.97 0 .984.18 1.71.54 2.178.372.468.888.702 1.548.702.564 0 1.062-.072 1.494-.216a6.182 6.182 0 001.26-.63v2.286a4.12 4.12 0 01-1.296.558c-.444.12-1.008.18-1.692.18zm13.386-7.992h-3.222V130h-2.682v-7.812h-3.222v-2.016h9.126v2.016zm10.525.558c0 .528-.168.978-.504 1.35-.324.372-.81.612-1.458.72v.072c.684.084 1.23.318 1.638.702.42.384.63.876.63 1.476 0 .564-.15 1.068-.45 1.512-.288.444-.75.792-1.386 1.044-.636.252-1.47.378-2.502.378h-4.68v-9.828h4.68c.768 0 1.452.084 2.052.252.612.156 1.092.42 1.44.792.36.372.54.882.54 1.53zm-2.718.216c0-.6-.474-.9-1.422-.9h-1.89v1.944h1.584c.564 0 .99-.078 1.278-.234.3-.168.45-.438.45-.81zm.252 3.96c0-.384-.15-.66-.45-.828-.3-.18-.75-.27-1.35-.27h-1.764v2.322h1.818c.504 0 .918-.09 1.242-.27.336-.192.504-.51.504-.954zm9.106-6.948c1.32 0 2.328.288 3.024.864.708.564 1.062 1.434 1.062 2.61V130h-1.872l-.522-1.332h-.072c-.42.528-.864.912-1.332 1.152-.468.24-1.11.36-1.926.36-.876 0-1.602-.252-2.178-.756-.576-.516-.864-1.302-.864-2.358 0-1.044.366-1.812 1.098-2.304.732-.504 1.83-.78 3.294-.828l1.71-.054v-.432c0-.516-.138-.894-.414-1.134-.264-.24-.636-.36-1.116-.36-.48 0-.948.072-1.404.216-.456.132-.912.3-1.368.504l-.882-1.818a7.727 7.727 0 011.746-.648 8.584 8.584 0 012.016-.234zm1.422 5.472l-1.044.036c-.864.024-1.464.18-1.8.468-.336.288-.504.666-.504 1.134 0 .408.12.702.36.882.24.168.552.252.936.252.576 0 1.062-.168 1.458-.504.396-.348.594-.834.594-1.458v-.81z" fill="#767676"/><path d="M70 60.6c-4.8 0-8.6-5.6-8.6-12.8 0-7.2 3.8-12.8 8.6-12.8s8.6 5.6 8.6 12.8c0 7.2-3.7 12.8-8.6 12.8zM70 38c-3 0-5.6 4.5-5.6 9.8 0 5.3 2.6 9.8 5.6 9.8 3 0 5.6-4.5 5.6-9.8 0-5.3-2.5-9.8-5.6-9.8zm18.6 23c-4.8 0-8.6-5.6-8.6-12.8 0-7.2 3.8-12.8 8.6-12.8s8.6 5.6 8.6 12.8c0 7.2-3.8 12.8-8.6 12.8zm0-22.6c-3 0-5.6 4.5-5.6 9.8 0 5.3 2.6 9.8 5.6 9.8 3 0 5.6-4.5 5.6-9.8 0-5.3-2.5-9.8-5.6-9.8zM58.5 60.6c-.8 0-1.5-.7-1.5-1.5v-19l-3.5 2.7c-.7.5-1.6.4-2.1-.3s-.4-1.6.3-2.1l5.9-4.6c.5-.4 1.1-.4 1.6-.2.5.3.8.8.8 1.3V59c0 .9-.7 1.6-1.5 1.6zm45.978-.822c-.3 0-.6-.1-.8-.3-.7-.5-.9-1.4-.4-2.1l14.6-21.7c.5-.7 1.4-.9 2.1-.4.7.5.9 1.4.4 2.1l-14.7 21.7c-.3.5-.8.7-1.2.7zM105.9 47.2c-3.3 0-6.1-2.7-6.1-6.1 0-3.3 2.7-6.1 6.1-6.1 3.3 0 6.1 2.7 6.1 6.1 0 3.4-2.8 6.1-6.1 6.1zm0-9.1c-1.7 0-3.1 1.4-3.1 3.1 0 1.7 1.4 3.1 3.1 3.1 1.7 0 3.1-1.4 3.1-3.1 0-1.7-1.4-3.1-3.1-3.1zm12.7 21.6c-3.3 0-6.1-2.7-6.1-6.1 0-3.3 2.7-6.1 6.1-6.1 3.3 0 6.1 2.7 6.1 6.1 0 3.4-2.7 6.1-6.1 6.1zm0-9.1c-1.7 0-3.1 1.4-3.1 3.1 0 1.7 1.4 3.1 3.1 3.1 1.7 0 3.1-1.4 3.1-3.1 0-1.8-1.4-3.1-3.1-3.1z" fill="#5AD830"/><path d="M87.4 92.8C61.8 92.8 41 72 41 46.4 41 20.8 61.8 0 87.4 0c25.6 0 46.4 20.8 46.4 46.4 0 25.6-20.8 46.4-46.4 46.4zm0-89.8C63.5 3 44 22.5 44 46.4s19.5 43.4 43.4 43.4 43.4-19.5 43.4-43.4S111.3 3 87.4 3z" fill="#5AD830"/></svg>