<svg width="93" height="93" fill="none" xmlns="http://www.w3.org/2000/svg"><path d="M29 60.6c-4.8 0-8.6-5.6-8.6-12.8 0-7.2 3.8-12.8 8.6-12.8s8.6 5.6 8.6 12.8c0 7.2-3.7 12.8-8.6 12.8zM29 38c-3 0-5.6 4.5-5.6 9.8 0 5.3 2.6 9.8 5.6 9.8 3 0 5.6-4.5 5.6-9.8 0-5.3-2.5-9.8-5.6-9.8zm18.6 23c-4.8 0-8.6-5.6-8.6-12.8 0-7.2 3.8-12.8 8.6-12.8s8.6 5.6 8.6 12.8c0 7.2-3.8 12.8-8.6 12.8zm0-22.6c-3 0-5.6 4.5-5.6 9.8 0 5.3 2.6 9.8 5.6 9.8 3 0 5.6-4.5 5.6-9.8 0-5.3-2.5-9.8-5.6-9.8zM17.5 60.6c-.8 0-1.5-.7-1.5-1.5v-19l-3.5 2.7c-.7.5-1.6.4-2.1-.3s-.4-1.6.3-2.1l5.9-4.6c.5-.4 1.1-.4 1.6-.2.5.3.8.8.8 1.3V59c0 .9-.7 1.6-1.5 1.6zm45.978-.822c-.3 0-.6-.1-.8-.3-.7-.5-.9-1.4-.4-2.1l14.6-21.7c.5-.7 1.4-.9 2.1-.4.7.5.9 1.4.4 2.1l-14.7 21.7c-.3.5-.8.7-1.2.7zM64.9 47.2c-3.3 0-6.1-2.7-6.1-6.1 0-3.3 2.7-6.1 6.1-6.1 3.3 0 6.1 2.7 6.1 6.1 0 3.4-2.8 6.1-6.1 6.1zm0-9.1c-1.7 0-3.1 1.4-3.1 3.1 0 1.7 1.4 3.1 3.1 3.1 1.7 0 3.1-1.4 3.1-3.1 0-1.7-1.4-3.1-3.1-3.1zm12.7 21.6c-3.3 0-6.1-2.7-6.1-6.1 0-3.3 2.7-6.1 6.1-6.1 3.3 0 6.1 2.7 6.1 6.1 0 3.4-2.7 6.1-6.1 6.1zm0-9.1c-1.7 0-3.1 1.4-3.1 3.1 0 1.7 1.4 3.1 3.1 3.1 1.7 0 3.1-1.4 3.1-3.1 0-1.8-1.4-3.1-3.1-3.1z" fill="#5AD830"/><path d="M46.4 92.8C20.8 92.8 0 72 0 46.4 0 20.8 20.8 0 46.4 0 72 0 92.8 20.8 92.8 46.4 92.8 72 72 92.8 46.4 92.8zm0-89.8C22.5 3 3 22.5 3 46.4s19.5 43.4 43.4 43.4 43.4-19.5 43.4-43.4S70.3 3 46.4 3z" fill="#5AD830"/></svg>