<svg width="98" height="93" fill="none" xmlns="http://www.w3.org/2000/svg"><path d="M97.366 39.691a1.5 1.5 0 00-2.113.18l-2.635 3.126C90.88 18.998 70.812 0 46.377 0 20.805 0 0 20.804 0 46.375 0 71.947 20.805 92.75 46.377 92.75c16.381 0 31.229-8.38 39.717-22.416a1.5 1.5 0 10-2.567-1.553c-7.94 13.13-21.828 20.969-37.15 20.969C22.459 89.75 3 70.292 3 46.375S22.459 3 46.377 3c22.972 0 41.82 17.952 43.276 40.562l-3.36-2.806a1.5 1.5 0 00-1.924 2.303l5.967 4.983a1.498 1.498 0 002.108-.184l5.102-6.052a1.501 1.501 0 00-.18-2.115z" fill="#5AD830"/></svg>