<svg width="98" height="93" fill="none" xmlns="http://www.w3.org/2000/svg"><path d="M97.366 39.691a1.5 1.5 0 00-2.113.18l-2.635 3.126C90.88 18.998 70.812 0 46.377 0 20.805 0 0 20.804 0 46.375 0 71.947 20.805 92.75 46.377 92.75c16.381 0 31.229-8.38 39.717-22.416a1.5 1.5 0 10-2.567-1.553c-7.94 13.13-21.828 20.969-37.15 20.969C22.459 89.75 3 70.292 3 46.375S22.459 3 46.377 3c22.972 0 41.82 17.952 43.276 40.562l-3.36-2.806a1.5 1.5 0 00-1.924 2.303l5.967 4.983a1.498 1.498 0 002.108-.184l5.102-6.052a1.501 1.501 0 00-.18-2.115z" fill="#5AD830"/><path d="M37.47 43.415c-1.217.8-2.596 1.708-4.123 2.908-.181.131-4.443 3.25-6.188 6.16-1.753 2.924-2.323 7.721-2.347 7.924a1.499 1.499 0 001.49 1.672h18.71a1.5 1.5 0 100-3h-16.95c.285-1.48.813-3.624 1.67-5.054 1.187-1.979 4.285-4.479 5.424-5.309 1.472-1.156 2.795-2.027 3.963-2.795 3.058-2.012 5.473-3.6 5.473-7.674 0-5.356-4.358-9.714-9.714-9.714-5.358 0-9.718 4.357-9.718 9.714a1.5 1.5 0 103 0c0-3.702 3.014-6.714 6.718-6.714a6.722 6.722 0 016.714 6.714c0 2.344-.991 3.107-4.122 5.168zm25.874 18.838a1.5 1.5 0 001.5-1.5v-7.072h4.394a1.5 1.5 0 000-3h-4.394V30.208a1.5 1.5 0 00-2.76-.814L47.883 51.366a1.501 1.501 0 001.259 2.314h12.702v7.072a1.5 1.5 0 001.5 1.501zM51.898 50.681l9.946-15.389v15.39h-9.946z" fill="#5AD830"/></svg>