<svg width="45" height="45" fill="none" xmlns="http://www.w3.org/2000/svg"><path d="M42.5 45h-40A2.5 2.5 0 010 42.5v-40A2.5 2.5 0 012.5 0h40A2.5 2.5 0 0145 2.5v40a2.5 2.5 0 01-2.5 2.5z" fill="url(#paint0_linear)"/><path d="M11.098 2.5h2.235l1.533 5.745 1.42-5.745h2.257l-2.584 8.543v5.83h-2.221v-5.83L11.098 2.5zM21.33 6.183c-1.736 0-2.887 1.148-2.887 2.847v5.197c0 1.87.976 2.842 2.887 2.842 1.586 0 2.834-1.06 2.834-2.841V9.03c0-1.659-1.238-2.847-2.834-2.847zm.824 7.956c0 .577-.295 1.002-.825 1.002-.545 0-.86-.445-.86-1.002V9.205c0-.58.267-1.01.821-1.01.605 0 .864.418.864 1.01v4.934zm7.339-7.868v8.048c-.24.301-.777.795-1.16.795-.42 0-.524-.289-.524-.714V6.271h-1.971v8.861c0 1.048.32 1.894 1.376 1.894.596 0 1.425-.31 2.277-1.323v1.17h1.972v-10.6h-1.97V6.27zm3.418 21.505c-.695 0-.84.489-.84 1.184v1.023h1.66v-1.024c.002-.683-.143-1.183-.82-1.183zm-7.298.063c-.13.066-.26.169-.388.307v6.293c.154.165.301.282.445.355.306.155.753.166.96-.104.109-.142.163-.374.163-.696V28.78c0-.341-.067-.598-.2-.776-.228-.3-.65-.332-.98-.166zm7.49-8.063c-4.04-.275-17.172-.275-21.207 0-4.366.298-4.882 2.936-4.915 9.88.033 6.933.544 9.583 4.915 9.88 4.035.275 17.167.275 21.208 0 4.366-.297 4.882-2.937 4.915-9.88-.033-6.931-.544-9.581-4.915-9.88zM13.98 36.36h-2.115V24.657H9.676v-1.986h6.49v1.986H13.98V36.36zm7.52 0h-1.88v-1.114c-.346.411-.706.725-1.08.939-1.01.58-2.4.566-2.4-1.483v-8.439h1.875v7.74c0 .407.098.68.5.68.367 0 .875-.47 1.104-.756v-7.664h1.878V36.36zm7.227-2.092c0 1.25-.467 2.222-1.716 2.222-.687 0-1.26-.252-1.782-.905v.776h-1.895V22.672h1.895v4.408c.423-.516.998-.944 1.67-.944 1.375 0 1.83 1.163 1.83 2.532v5.6h-.002zm6.938-2.718h-3.591v1.906c0 .758.065 1.413.818 1.413.793 0 .84-.534.84-1.413v-.701h1.933v.759c0 1.945-.835 3.123-2.814 3.123-1.792 0-2.71-1.306-2.71-3.123V28.98c0-1.753 1.158-2.97 2.851-2.97 1.802 0 2.672 1.145 2.672 2.97v2.57-.001z" fill="#fff"/><path opacity=".07" d="M22.498 19.57c4.292 0 8.585.069 10.606.206 4.371.298 4.882 2.95 4.915 9.88-.033 6.943-.548 9.583-4.915 9.88-2.02.138-6.314.207-10.606.207-4.293 0-8.584-.07-10.602-.207-4.37-.297-4.882-2.948-4.915-9.88.033-6.945.548-9.582 4.915-9.88 2.018-.137 6.31-.206 10.602-.206zm0-.625c-4.687 0-8.764.08-10.644.208-5.196.355-5.466 4.032-5.498 10.5.03 6.476.302 10.153 5.498 10.508 1.88.128 5.957.208 10.644.208 4.686 0 8.766-.08 10.648-.208 5.197-.355 5.468-4.032 5.498-10.5-.03-6.476-.301-10.153-5.498-10.508-1.882-.128-5.962-.208-10.648-.208z" fill="#000"/><path opacity=".05" d="M18.543 2.5l-2.584 8.543v5.83h-2.221v-5.83L11.098 2.5h2.234l1.534 5.745 1.42-5.745h2.256zm2.787 3.683c1.596 0 2.834 1.188 2.834 2.847v5.197c0 1.782-1.248 2.842-2.834 2.842-1.911 0-2.887-.973-2.887-2.841V9.03c0-1.699 1.15-2.847 2.887-2.847zm-.001 8.958c.531 0 .825-.425.825-1.002V9.205c0-.592-.259-1.01-.864-1.01-.554 0-.821.43-.821 1.01v4.934c0 .557.315 1.002.86 1.002zm10.135-8.87v10.6h-1.971v-1.17c-.854 1.014-1.683 1.324-2.278 1.324-1.056 0-1.376-.846-1.376-1.894V6.27h1.971v8.129c0 .425.104.714.525.714.384 0 .919-.494 1.159-.795V6.27h1.97v.001zM19.385 1.875h-3.588l-.117.475-.838 3.385-.906-3.396-.123-.464H10.25l.25.81 2.614 8.452V17.5h3.471v-6.363l2.557-8.454.243-.807zm1.945 3.683c-2.069 0-3.512 1.427-3.512 3.472v5.197c0 2.235 1.247 3.467 3.512 3.467 2.036 0 3.459-1.425 3.459-3.466V9.03c0-1.98-1.488-3.472-3.459-3.472zm-.001 8.958c-.204 0-.235-.236-.235-.377V9.205c0-.385.132-.385.196-.385.129 0 .239 0 .239.385v4.934c0 .25-.068.377-.2.377zm10.76-8.87h-3.221v8.436c-.147.15-.313.284-.434.354V5.645h-3.222v9.486c0 2.273 1.4 2.519 2.002 2.519.361 0 .96-.089 1.652-.544v.39h3.221V5.646h.002z" fill="#1B1464"/><path opacity=".05" d="M33.188 18.529c-1.896-.129-5.993-.209-10.691-.209-4.699 0-8.794.08-10.687.209-6.03.411-6.05 5.137-6.08 11.121.03 5.994.05 10.723 6.08 11.134 1.893.129 5.988.209 10.687.209 4.698 0 8.795-.08 10.691-.21 6.03-.41 6.051-5.137 6.08-11.12-.029-5.993-.051-10.723-6.08-11.134zm-.043 21.632c-1.882.128-5.962.208-10.648.208s-8.764-.08-10.644-.208c-5.196-.353-5.466-4.03-5.498-10.507.03-6.469.302-10.146 5.498-10.501 1.88-.128 5.958-.208 10.644-.208s8.766.08 10.648.208c5.197.353 5.467 4.03 5.498 10.507-.031 6.469-.301 10.146-5.498 10.501zM9.901 2.869l2.585 8.362v6.891h4.722v-3.678c.088 2.425 1.607 3.873 4.12 3.873 1.516 0 2.757-.71 3.46-1.838.418 1.292 1.445 1.795 2.425 1.795.266 0 .62-.038 1.028-.173v.019h4.472V5.02h-8.127v1.505c-.732-.975-1.89-1.594-3.257-1.594-.936 0-1.766.269-2.438.731l.848-2.8.244-.807.242-.805h-4.919l-.117.475-.118.475-.253 1.026-.28-1.047-.124-.464-.123-.465h-4.89l.25.81.25.809zm15.31 3.402v-.625h3.222v8.791c.12-.07.287-.203.433-.353V5.646h3.222v11.85h-3.222v-.39c-.693.455-1.292.544-1.653.544-.602 0-2.002-.245-2.002-2.519v-8.86zm-3.882-.713c1.971 0 3.459 1.492 3.459 3.472v5.197c0 2.042-1.423 3.467-3.46 3.467-2.264 0-3.512-1.232-3.512-3.466V9.03c0-2.045 1.444-3.472 3.513-3.472zM11.096 1.875h2.715l.124.464.906 3.396.838-3.385.117-.475h3.588l-.244.806-2.557 8.454v6.362H13.11v-6.36L10.5 2.685l-.25-.81h.847z" fill="#000"/><path d="M42.5 45h-40A2.5 2.5 0 010 42.5v-40A2.5 2.5 0 012.5 0h40A2.5 2.5 0 0145 2.5v40a2.5 2.5 0 01-2.5 2.5z" fill="url(#paint1_linear)"/><path d="M11.098 2.5h2.235l1.533 5.745 1.42-5.745h2.257l-2.584 8.543v5.83h-2.221v-5.83L11.098 2.5zM21.33 6.183c-1.736 0-2.887 1.148-2.887 2.847v5.197c0 1.87.976 2.842 2.887 2.842 1.586 0 2.834-1.06 2.834-2.841V9.03c0-1.659-1.238-2.847-2.834-2.847zm.824 7.956c0 .577-.295 1.002-.825 1.002-.545 0-.86-.445-.86-1.002V9.205c0-.58.267-1.01.821-1.01.605 0 .864.418.864 1.01v4.934zm7.339-7.868v8.048c-.24.301-.777.795-1.16.795-.42 0-.524-.289-.524-.714V6.271h-1.971v8.861c0 1.048.32 1.894 1.376 1.894.596 0 1.425-.31 2.277-1.323v1.17h1.972v-10.6h-1.97V6.27zm3.418 21.505c-.695 0-.84.489-.84 1.184v1.023h1.66v-1.024c.002-.683-.143-1.183-.82-1.183zm-7.298.063c-.13.066-.26.169-.388.307v6.293c.154.165.301.282.445.355.306.155.753.166.96-.104.109-.142.163-.374.163-.696V28.78c0-.341-.067-.598-.2-.776-.228-.3-.65-.332-.98-.166zm7.49-8.063c-4.04-.275-17.172-.275-21.207 0-4.366.298-4.882 2.936-4.915 9.88.033 6.933.544 9.583 4.915 9.88 4.035.275 17.167.275 21.208 0 4.366-.297 4.882-2.937 4.915-9.88-.033-6.931-.544-9.581-4.915-9.88zM13.98 36.36h-2.115V24.657H9.676v-1.986h6.49v1.986H13.98V36.36zm7.52 0h-1.88v-1.114c-.346.411-.706.725-1.08.939-1.01.58-2.4.566-2.4-1.483v-8.439h1.875v7.74c0 .407.098.68.5.68.367 0 .875-.47 1.104-.756v-7.664h1.878V36.36zm7.227-2.092c0 1.25-.467 2.222-1.716 2.222-.687 0-1.26-.252-1.782-.905v.776h-1.895V22.672h1.895v4.408c.423-.516.998-.944 1.67-.944 1.375 0 1.83 1.163 1.83 2.532v5.6h-.002zm6.938-2.718h-3.591v1.906c0 .758.065 1.413.818 1.413.793 0 .84-.534.84-1.413v-.701h1.933v.759c0 1.945-.835 3.123-2.814 3.123-1.792 0-2.71-1.306-2.71-3.123V28.98c0-1.753 1.158-2.97 2.851-2.97 1.802 0 2.672 1.145 2.672 2.97v2.57-.001z" fill="#fff"/><path opacity=".07" d="M22.498 19.57c4.292 0 8.585.069 10.606.206 4.371.298 4.882 2.95 4.915 9.88-.033 6.943-.548 9.583-4.915 9.88-2.02.138-6.314.207-10.606.207-4.293 0-8.584-.07-10.602-.207-4.37-.297-4.882-2.948-4.915-9.88.033-6.945.548-9.582 4.915-9.88 2.018-.137 6.31-.206 10.602-.206zm0-.625c-4.687 0-8.764.08-10.644.208-5.196.355-5.466 4.032-5.498 10.5.03 6.476.302 10.153 5.498 10.508 1.88.128 5.957.208 10.644.208 4.686 0 8.766-.08 10.648-.208 5.197-.355 5.468-4.032 5.498-10.5-.03-6.476-.301-10.153-5.498-10.508-1.882-.128-5.962-.208-10.648-.208z" fill="#000"/><path opacity=".05" d="M18.543 2.5l-2.584 8.543v5.83h-2.221v-5.83L11.098 2.5h2.234l1.534 5.745 1.42-5.745h2.256zm2.787 3.683c1.596 0 2.834 1.188 2.834 2.847v5.197c0 1.782-1.248 2.842-2.834 2.842-1.911 0-2.887-.973-2.887-2.841V9.03c0-1.699 1.15-2.847 2.887-2.847zm-.001 8.958c.531 0 .825-.425.825-1.002V9.205c0-.592-.259-1.01-.864-1.01-.554 0-.821.43-.821 1.01v4.934c0 .557.315 1.002.86 1.002zm10.135-8.87v10.6h-1.971v-1.17c-.854 1.014-1.683 1.324-2.278 1.324-1.056 0-1.376-.846-1.376-1.894V6.27h1.971v8.129c0 .425.104.714.525.714.384 0 .919-.494 1.159-.795V6.27h1.97v.001zM19.385 1.875h-3.588l-.117.475-.838 3.385-.906-3.396-.123-.464H10.25l.25.81 2.614 8.452V17.5h3.471v-6.363l2.557-8.454.243-.807zm1.945 3.683c-2.069 0-3.512 1.427-3.512 3.472v5.197c0 2.235 1.247 3.467 3.512 3.467 2.036 0 3.459-1.425 3.459-3.466V9.03c0-1.98-1.488-3.472-3.459-3.472zm-.001 8.958c-.204 0-.235-.236-.235-.377V9.205c0-.385.132-.385.196-.385.129 0 .239 0 .239.385v4.934c0 .25-.068.377-.2.377zm10.76-8.87h-3.221v8.436c-.147.15-.313.284-.434.354V5.645h-3.222v9.486c0 2.273 1.4 2.519 2.002 2.519.361 0 .96-.089 1.652-.544v.39h3.221V5.646h.002z" fill="#1B1464"/><path opacity=".05" d="M33.188 18.529c-1.896-.129-5.993-.209-10.691-.209-4.699 0-8.794.08-10.687.209-6.03.411-6.05 5.137-6.08 11.121.03 5.994.05 10.723 6.08 11.134 1.893.129 5.988.209 10.687.209 4.698 0 8.795-.08 10.691-.21 6.03-.41 6.051-5.137 6.08-11.12-.029-5.993-.051-10.723-6.08-11.134zm-.043 21.632c-1.882.128-5.962.208-10.648.208s-8.764-.08-10.644-.208c-5.196-.353-5.466-4.03-5.498-10.507.03-6.469.302-10.146 5.498-10.501 1.88-.128 5.958-.208 10.644-.208s8.766.08 10.648.208c5.197.353 5.467 4.03 5.498 10.507-.031 6.469-.301 10.146-5.498 10.501zM9.901 2.869l2.585 8.362v6.891h4.722v-3.678c.088 2.425 1.607 3.873 4.12 3.873 1.516 0 2.757-.71 3.46-1.838.418 1.292 1.445 1.795 2.425 1.795.266 0 .62-.038 1.028-.173v.019h4.472V5.02h-8.127v1.505c-.732-.975-1.89-1.594-3.257-1.594-.936 0-1.766.269-2.438.731l.848-2.8.244-.807.242-.805h-4.919l-.117.475-.118.475-.253 1.026-.28-1.047-.124-.464-.123-.465h-4.89l.25.81.25.809zm15.31 3.402v-.625h3.222v8.791c.12-.07.287-.203.433-.353V5.646h3.222v11.85h-3.222v-.39c-.693.455-1.292.544-1.653.544-.602 0-2.002-.245-2.002-2.519v-8.86zm-3.882-.713c1.971 0 3.459 1.492 3.459 3.472v5.197c0 2.042-1.423 3.467-3.46 3.467-2.264 0-3.512-1.232-3.512-3.466V9.03c0-2.045 1.444-3.472 3.513-3.472zM11.096 1.875h2.715l.124.464.906 3.396.838-3.385.117-.475h3.588l-.244.806-2.557 8.454v6.362H13.11v-6.36L10.5 2.685l-.25-.81h.847z" fill="#000"/><defs><linearGradient id="paint0_linear" x1="-6.951" y1="-7.621" x2="48.29" y2="48.876" gradientUnits="userSpaceOnUse"><stop stop-color="#F52537"/><stop offset=".293" stop-color="#F32536"/><stop offset=".465" stop-color="#EA2434"/><stop offset=".605" stop-color="#DC2231"/><stop offset=".729" stop-color="#C8202C"/><stop offset=".841" stop-color="#AE1E25"/><stop offset=".944" stop-color="#8F1A1D"/><stop offset="1" stop-color="#7A1818"/></linearGradient><linearGradient id="paint1_linear" x1="-6.951" y1="-7.621" x2="48.29" y2="48.876" gradientUnits="userSpaceOnUse"><stop stop-color="#F52537"/><stop offset=".293" stop-color="#F32536"/><stop offset=".465" stop-color="#EA2434"/><stop offset=".605" stop-color="#DC2231"/><stop offset=".729" stop-color="#C8202C"/><stop offset=".841" stop-color="#AE1E25"/><stop offset=".944" stop-color="#8F1A1D"/><stop offset="1" stop-color="#7A1818"/></linearGradient></defs></svg>